PathFileType	4	(X/Y/Z)	C:/Users/opensim2020/Desktop/walking_exp_matlab/subject02_walking14_straight_02.trc																																																																																																																									
DataRate	CameraRate	NumFrames	NumMarkers	Units	OrigDataRate	OrigDataStartFrame	OrigNumFrames																																																																																																																					
100	100	8	41	mm	100	825	121																																																																																																																					
Frame#	Time	LFHD			RFHD			LBHD			RBHD			C7			T10			CLAV			STRN			RBAK			LSHO			LUPA			LELB			LFRM			LWRA			LWRB			LFIN			RSHO			RUPA			RELB			RFRM			RWRA			RWRB			RFIN			LASI			RASI			LPSI			RPSI			LTHI			LKNE			LTIB			LANK			LHEE			LTOE			RTHI			RKNE			RTIB			RANK			RHEE			RTOE			*39			*40		
		X1	Y1	Z1	X2	Y2	Z2	X3	Y3	Z3	X4	Y4	Z4	X5	Y5	Z5	X6	Y6	Z6	X7	Y7	Z7	X8	Y8	Z8	X9	Y9	Z9	X10	Y10	Z10	X11	Y11	Z11	X12	Y12	Z12	X13	Y13	Z13	X14	Y14	Z14	X15	Y15	Z15	X16	Y16	Z16	X17	Y17	Z17	X18	Y18	Z18	X19	Y19	Z19	X20	Y20	Z20	X21	Y21	Z21	X22	Y22	Z22	X23	Y23	Z23	X24	Y24	Z24	X25	Y25	Z25	X26	Y26	Z26	X27	Y27	Z27	X28	Y28	Z28	X29	Y29	Z29	X30	Y30	Z30	X31	Y31	Z31	X32	Y32	Z32	X33	Y33	Z33	X34	Y34	Z34	X35	Y35	Z35	X36	Y36	Z36	X37	Y37	Z37	X38	Y38	Z38	X39	Y39	Z39	X40	Y40	Z40	X41	Y41	Z41
																																																																																																																												
16	0.15	-446.53403	1718.32458	960.47321	-459.08667	1706.28076	1103.87512	-579.07373	1649.34045	944.64508	-604.05432	1636.07214	1085.14441	-648.18109	1511.44202	1004.65027	-697.77399	1234.0448	1011.43884	-505.01434	1445.08398	1013.86475	-453.08789	1275.5387	1036.11389	-713.43311	1336.25	1065.19519	-552.05389	1481.5719	836.85358	-607.19727	1293.81421	749.08575	-654.82318	1164.29077	735.91852	-700.72491	1046.42566	706.89691	-706.54492	903.57855	717.51837	-746.12482	932.38074	687.8299	-767.06879	866.18695	685.09015	-603.54718	1483.25549	1195.12708	-611.04932	1311.95251	1307.91418	-549.38458	1188.5481	1372.00464	-455.03928	1111.69055	1396.29919	-341.87473	1042.34692	1382.30493	-373.86298	1011.08276	1416.74927	-305.03201	995.58502	1424.32495	-446.88663	977.06744	912.98981	-492.57748	949.12091	1157.56445	-668.04474	1021.16412	955.13812	-692.81281	1015.56561	1070.30603	-430.10645	675.00208	867.77551	-410.05798	479.68921	915.28333	-448.99628	289.92572	911.87628	-444.71329	72.14499	953.70752	-489.52893	45.40372	998.31775	-288.61542	36.03699	974.64813	-625.33447	659.26526	1238.3656	-656.82501	460.00912	1237.3877	-813.59521	364.02634	1223.80103	-959.95184	248.63205	1173.21448	-998.80658	238.85727	1102.41968	-948.33563	87.36258	1208.59021	-551.48608	1792.1853	1039.32947	-2846.03442	1034.30359	3357.54761
17	0.16	-432.63019	1720.46216	961.13934	-445.29279	1708.85852	1104.23425	-565.61682	1652.09778	945.2027	-590.38373	1638.92371	1085.90198	-634.51904	1514.1012	1005.39648	-684.2674	1236.63159	1012.32397	-491.74036	1447.62341	1014.42542	-439.78427	1277.98779	1036.43262	-700.06268	1339.08179	1066.19141	-538.58716	1484.25916	837.31964	-591.05908	1295.1908	749.59894	-636.7699	1164.65906	736.35199	-679.12506	1045.30481	708.35919	-681.36853	902.15784	721.04291	-721.57629	929.57751	690.07184	-740.21838	862.65875	687.98492	-589.66541	1485.2843	1196.10657	-598.89874	1312.47034	1307.05701	-538.94659	1188.05164	1370.15649	-445.93628	1109.30347	1394.13965	-333.8056	1038.18225	1380.19653	-366.48874	1007.4292	1414.50439	-298.00305	990.64478	1422.21655	-434.29117	979.75659	911.90057	-478.63467	951.64935	1157.29797	-655.1673	1023.64667	955.47583	-679.8653	1018.15155	1070.07605	-419.42554	676.64545	867.67395	-405.29324	479.66357	914.39581	-447.68668	290.17453	911.28467	-444.53995	72.11742	953.95721	-489.59891	45.45782	998.38495	-288.76068	35.99672	974.37305	-602.59839	660.29956	1238.552	-629.34308	461.40591	1237.84766	-786.69415	366.71622	1222.85486	-933.49951	252.32106	1171.32275	-973.11884	241.07074	1100.52319	-919.79846	92.97642	1210.53064	-537.8432	1794.72192	1039.35706	-2846.19922	1034.24414	3357.40674
18	0.17	-419.21436	1723.09131	961.33197	-431.53293	1711.41382	1104.63635	-552.18152	1654.55835	945.7254	-576.80933	1641.76172	1086.62451	-620.96405	1516.9397	1006.26941	-670.92957	1239.34753	1013.24573	-478.45303	1450.2561	1015.03809	-426.50476	1280.47852	1036.86389	-686.93738	1342.03979	1067.3208	-525.26184	1487.14124	837.87482	-574.77411	1296.56604	750.41248	-618.24615	1165.1228	737.17877	-657.15582	1044.15906	709.88196	-655.5863	901.30072	724.11511	-695.87872	927.04865	692.60974	-712.20465	859.70673	690.73254	-575.81567	1487.39941	1197.07104	-587.01599	1313.46411	1306.77795	-528.7074	1187.48828	1367.87976	-437.18793	1107.021	1391.8772	-326.37115	1033.72302	1377.9646	-359.76157	1003.68091	1412.23096	-291.5798	985.14423	1419.8374	-422.04233	982.64789	911.32855	-465.14215	955.19427	1157.74719	-642.41388	1026.42188	955.79175	-667.16602	1021.25189	1069.84143	-410.13892	677.90399	867.25488	-400.74365	479.68549	913.20428	-446.15451	290.72852	910.2547	-444.77859	72.22128	953.74451	-489.62701	45.53959	998.43256	-288.98441	35.9505	973.96063	-580.07501	661.65704	1238.44751	-601.97797	463.1727	1238.13208	-759.48761	368.94479	1221.76343	-906.29272	254.81667	1169.70557	-946.24609	241.81749	1098.81128	-889.98712	97.36097	1212.38501	-523.94592	1797.45691	1039.91443	-2845.28369	1034.25098	3360.33252
19	0.18	-405.55035	1725.29297	961.96448	-417.81598	1713.84473	1105.25635	-538.7265	1657.08594	946.53699	-563.27356	1644.55945	1087.19324	-607.60992	1519.78259	1007.14838	-657.60657	1242.08008	1014.09491	-465.64764	1452.62036	1015.65997	-413.31415	1283.03223	1037.34607	-673.54602	1344.74731	1068.11682	-512.09485	1490.10461	838.52753	-558.15924	1298.01978	751.14099	-599.26526	1165.69922	737.66418	-634.41815	1043.10266	711.53796	-628.52582	900.80328	727.81482	-669.46307	924.94867	695.13043	-683.00067	857.0498	693.27405	-562.021	1489.62427	1198.03247	-574.84235	1314.3866	1305.94971	-518.66016	1187.40198	1365.95984	-428.90118	1104.9989	1390.40259	-319.48941	1029.06091	1375.59985	-353.66101	999.81122	1409.89612	-285.98441	979.50769	1417.50525	-409.83502	985.75513	911.04736	-451.80881	959.13336	1158.9386	-629.63574	1029.24731	956.073	-654.25208	1024.37219	1069.62085	-401.71799	678.88855	866.4986	-396.6976	479.67566	911.74683	-444.87021	291.21399	908.97461	-445.09473	72.23881	953.52844	-489.82669	45.58599	998.32666	-289.29636	35.90405	973.29108	-558.09058	663.24945	1238.23584	-574.79614	465.09283	1237.91541	-732.02954	370.86987	1220.66504	-878.29315	255.9035	1168.28418	-918.39301	241.0688	1097.37708	-858.86676	100.0134	1213.99829	-510.24991	1800.12512	1040.38293	-2845.25073	1034.28577	3360.30835
20	0.19	-392.04498	1727.80237	962.72504	-404.24271	1716.27332	1105.78052	-525.6189	1659.96326	947.06158	-549.94623	1647.26404	1087.95654	-594.27057	1522.37793	1008.03455	-644.38324	1244.74121	1014.85431	-452.21298	1455.3313	1016.4552	-400.12683	1285.56665	1037.86548	-660.26404	1347.28284	1068.85229	-499.09653	1493.08081	839.24896	-541.75879	1299.59338	752.02448	-579.98932	1166.32739	738.50073	-611.22144	1042.39563	713.29089	-600.78345	900.33044	731.53876	-641.98779	922.95422	697.94843	-652.70575	854.73053	695.81525	-548.45947	1492.00488	1199.02246	-562.93335	1315.39624	1304.48706	-508.71857	1187.18811	1363.74756	-420.80978	1102.67993	1387.77258	-313.16415	1024.16394	1373.21082	-348.12964	995.84796	1407.50012	-281.07928	973.67371	1414.8573	-398.00424	988.80109	911.1554	-438.89993	963.78802	1160.4281	-616.88147	1032.00427	956.37988	-640.97168	1027.25427	1069.40161	-394.85632	679.33673	865.30658	-393.20514	479.64215	910.35254	-443.62708	291.56094	907.45471	-445.50955	72.23285	953.33704	-490.06638	45.63522	998.23102	-289.69284	35.99518	972.3255	-536.64581	665.04376	1238.00488	-547.96698	467.20395	1237.70154	-704.29089	372.30215	1219.68677	-849.35742	255.54323	1167.28259	-889.55933	238.9359	1096.30042	-826.62061	101.28767	1215.30469	-496.58746	1802.75439	1040.9856	-2845.93555	1034.28699	3357.52319
21	0.2	-378.81204	1730.39807	963.11816	-390.88391	1718.6792	1106.38123	-512.33551	1662.65576	947.73352	-536.60138	1650.01843	1088.95068	-581.00543	1524.93958	1009.02399	-631.1109	1247.27832	1015.54779	-439.32355	1457.72693	1017.18475	-386.96506	1287.9928	1038.44116	-646.9707	1349.58606	1069.43835	-486.29446	1496.00867	840.0766	-525.25305	1301.27039	752.93494	-560.33398	1166.89148	739.42535	-587.15918	1041.4043	715.28387	-572.03876	900.1037	735.38855	-613.64777	921.22687	700.80292	-621.46124	852.7431	698.42633	-535.05927	1494.30701	1200.06165	-551.12006	1316.77515	1303.92822	-498.94644	1187.44336	1362.04919	-413.05521	1100.50867	1385.66724	-307.29349	1019.14532	1370.74463	-343.14337	991.85889	1405.07886	-276.68958	967.34406	1412.2478	-386.11664	991.77045	911.37354	-426.05078	968.2265	1162.0531	-604.11243	1034.56677	956.63867	-627.62524	1030.04297	1069.3634	-389.03818	679.45032	864.44885	-390.0437	479.52173	909.02356	-442.41162	291.70502	906.28015	-445.78073	72.17664	953.12122	-490.272	45.63719	998.08594	-289.98547	35.99452	971.71265	-515.76788	666.9776	1237.91528	-521.56104	469.53522	1237.29468	-676.30023	373.12152	1218.81873	-819.6908	253.73547	1166.62549	-860.24951	235.4093	1095.75818	-792.95081	101.16058	1216.26721	-482.96771	1805.29102	1041.81287	-2845.37036	1034.27234	3360.50024
22	0.21	-365.70575	1732.61145	963.65497	-377.54132	1720.89722	1107.13989	-499.23141	1664.78076	948.63684	-523.34735	1652.16052	1089.29395	-567.88562	1527.30713	1010.05585	-617.96356	1249.64355	1016.21918	-426.26108	1460.13782	1017.94147	-373.75409	1290.38123	1039.01111	-633.91046	1351.79602	1070.03406	-473.67084	1498.88171	840.91559	-508.58304	1302.87695	754.0166	-540.20538	1167.42834	740.41565	-562.802	1040.80237	717.37537	-543.22925	900.77161	738.89117	-584.47223	919.68738	703.77924	-589.48004	851.28705	701.00281	-521.74298	1496.46936	1201.06287	-539.35364	1318.33252	1303.8623	-489.21991	1187.44385	1360.07642	-405.65198	1098.45862	1383.93457	-302.11572	1014.01282	1368.25659	-338.60214	987.76355	1402.61499	-272.92795	960.91235	1409.42334	-374.30405	994.41199	911.65405	-413.24026	972.58417	1163.46631	-591.47815	1036.88269	956.94586	-614.11945	1032.62476	1069.47937	-383.6456	679.34491	863.67096	-387.54016	479.45572	907.80536	-440.87357	291.69827	905.36395	-445.93323	72.13639	952.96759	-490.50049	45.70649	998.02679	-290.25156	36.02218	971.24536	-495.53726	669.07214	1237.90198	-495.63348	472.11981	1236.82129	-648.17908	373.22195	1218.13135	-789.4173	250.66963	1166.23926	-830.48688	230.48846	1095.52966	-757.49347	100.00579	1217.01929	-469.59698	1807.64026	1042.65332	-2845.46802	1034.02075	3360.46948
23	0.22	-352.32477	1734.61121	964.86536	-364.30701	1722.92407	1107.8728	-486.2605	1667.38306	949.27826	-510.31052	1654.85681	1091.23804	-554.58112	1529.41357	1011.1239	-604.70532	1251.81396	1016.76202	-412.96939	1462.56885	1018.75348	-360.55426	1292.58569	1039.49292	-620.61023	1353.52039	1070.35522	-461.13342	1501.49133	841.75037	-492.02463	1304.6936	754.9483	-519.85962	1167.92273	741.54584	-537.26471	1040.19556	719.26959	-513.58704	900.9989	743.14868	-555.11108	918.60278	706.78375	-556.72034	850.30164	703.63464	-508.70499	1498.61572	1202.00244	-527.66626	1319.59839	1303.17761	-479.57245	1187.78748	1358.70374	-398.41547	1096.26025	1381.97449	-297.18539	1008.80334	1365.78406	-334.4574	983.60303	1400.20349	-269.73083	954.44531	1406.52246	-362.38873	996.7478	911.83002	-400.39038	976.71063	1164.41467	-578.98859	1039.04419	957.31561	-600.65277	1034.96875	1069.86572	-378.58658	679.07825	863.22253	-384.74771	479.08313	906.99176	-439.04523	291.46912	904.79877	-446.03079	72.12003	952.93915	-490.63538	45.81914	998.01196	-290.38269	36.02607	971.008	-475.65463	671.25861	1237.95874	-470.1297	474.71512	1236.15295	-620.14459	372.5387	1217.6853	-758.64618	246.28577	1166.12097	-800.18866	224.11688	1095.7572	-720.39801	97.97864	1217.73022	-456.33316	1809.86194	1043.62903	-2846.13232	1034.31714	3357.52905
